<svg fill="none" height="34" viewBox="0 0 34 34" width="34" xmlns="http://www.w3.org/2000/svg"><g fill="#fff"><path d="m18.6667 10.3333c1.326 0 2.5978.5268 3.5355 1.4645s1.4645 2.2095 1.4645 3.5355c0 .4421.1756.866.4881 1.1785.3126.3126.7365.4882 1.1785.4882.4421 0 .866-.1756 1.1785-.4882.3126-.3125.4882-.7364.4882-1.1785 0-2.2101-.878-4.3297-2.4408-5.89252-1.5628-1.56281-3.6824-2.44078-5.8925-2.44078-.4421 0-.866.1756-1.1785.48816-.3126.31256-.4882.73648-.4882 1.17851 0 .44202.1756.86595.4882 1.17851.3125.31252.7364.48812 1.1785.48812z"/><path d="m18.6668 3.66671c3.0942 0 6.0617 1.22916 8.2496 3.41708 2.1879 2.18793 3.4171 5.15541 3.4171 8.24961 0 .442.1756.8659.4881 1.1785.3126.3125.7365.4881 1.1786.4881.442 0 .8659-.1756 1.1785-.4881.3125-.3126.4881-.7365.4881-1.1785 0-3.9783-1.5803-7.79358-4.3934-10.60663-2.813-2.81304-6.6283-4.393396-10.6066-4.393396-.442 0-.8659.175595-1.1785.488155-.3125.312561-.4881.736481-.4881 1.178511s.1756.86595.4881 1.17851c.3126.31256.7365.48816 1.1785.48816zm14.5834 19.84999c-.0917-.2676-.25-.5074-.4599-.6969s-.4646-.3225-.7401-.3864l-10-2.2834c-.2715-.0615-.554-.0541-.8218.0216-.2679.0757-.5125.2173-.7116.4118-.2333.2166-.25.2333-1.3333 2.3-3.5947-1.6564-6.475-4.5486-8.1167-8.15 2.1167-1.0667 2.1334-1.0667 2.35-1.3167.1945-.1991.3361-.4437.4118-.7115.0757-.2679.0831-.5504.0216-.8218l-2.2834-9.88336c-.0639-.27551-.1969-.53021-.3864-.74015-.1895-.20993-.4293-.368179-.6969-.459849-.3892-.139018-.79115-.2395-1.20001-.3-.42124-.097675-.85111-.153501-1.28333-.166667-2.03332 0-3.98337.807736-5.42115 2.245516s-2.245514 3.38782-2.245514 5.42115c.00882 6.80456 2.715814 13.32776 7.527334 18.13936 4.81157 4.8115 11.33477 7.5185 18.13937 7.5273 1.0068 0 2.0037-.1983 2.9339-.5836.9301-.3853 1.7753-.95 2.4872-1.6619s1.2766-1.5571 1.6619-2.4873c.3853-.9301.5836-1.9271.5836-2.9339.0005-.4242-.0329-.8477-.1-1.2666-.07-.414-.176-.8211-.3166-1.2167zm-7.25 6.8167c-5.9219-.0044-11.5999-2.3588-15.7872-6.5462-4.18737-4.1873-6.54176-9.8653-6.54617-15.78716.00439-1.14792.46235-2.24757 1.27405-3.05928.81171-.81171 1.91136-1.26966 3.05928-1.27405h.55l1.78334 7.73329-.9.4667c-1.43334.75-2.56667 1.35-1.96667 2.65.97704 2.766 2.55797 5.2796 4.62787 7.3581 2.07 2.0786 4.5769 3.67 7.3388 4.6586 1.4.5666 1.95-.4834 2.7-1.9334l.4833-.9166 7.7167 1.7666v.55c-.0044 1.148-.4624 2.2476-1.2741 3.0593s-1.9113 1.2697-3.0592 1.2741z"/></g></svg>