<svg fill="none" height="24" viewBox="0 0 24 24" width="24" xmlns="http://www.w3.org/2000/svg"><path clip-rule="evenodd" d="m12 0c-6.62903 0-12 5.37097-12 12 0 6.629 5.37097 12 12 12 6.629 0 12-5.371 12-12 0-6.62903-5.371-12-12-12zm.3158 22.1053c-5.4087 0-9.78948-4.3808-9.78948-9.7895s4.38078-9.78948 9.78948-9.78948 9.7895 4.38078 9.7895 9.78948-4.3808 9.7895-9.7895 9.7895zm-1.3367-8.7573 4.1982 2.9628c.267.1873.6379.1296.8307-.1249l.9297-1.2437c.1928-.2593.1384-.6194-.1286-.8067l-3.3031-2.3338v-6.80441c0-.31693-.2671-.57624-.5934-.57624h-1.5824c-.3263 0-.5934.25931-.5934.57624v7.88491c0 .1824.089.3553.2423.4658z" fill="#feb803" fill-rule="evenodd"/></svg>