<svg fill="none" height="12" viewBox="0 0 12 12" width="12" xmlns="http://www.w3.org/2000/svg"><path d="m11.0004.918514c-.2043-.204194-.4813-.318905-.7701-.318905-.28882 0-.56581.114711-.77007.318905l-3.58675 3.586756-3.58676-3.586756c-.20543-.198408-.48056-.308193-.76615-.305712-.28558.002482-.55877.117033-.760718.31898-.201947.201948-.316498.475138-.31898.760718-.002481.28559.107305.56072.305712.76615l3.586756 3.58675-3.586756 3.58676c-.10403.10047-.187008.22066-.244092.35355-.057085.13289-.087132.27579-.088388.42039-.001257.1447.026302.2881.081068.422.054766.1338.135643.2554.237911.3577.102269.1023.223881.1831.357737.2379.13386.0548.27729.0823.42191.0811.14463-.0013.28755-.0313.42044-.0884s.25308-.1401.35355-.2441l3.58676-3.58676 3.58675 3.58676c.20543.1984.48056.3082.76617.3057.2856-.0025.5588-.117.7607-.319.2019-.2019.3165-.4751.319-.7607s-.1073-.56071-.3057-.76614l-3.58679-3.58676 3.58679-3.58675c.2042-.20426.3189-.48125.3189-.77007s-.1147-.56581-.3189-.770066z" fill="#5b5d7e"/></svg>