<svg fill="none" height="218" viewBox="0 0 218 218" width="218" xmlns="http://www.w3.org/2000/svg" xmlns:xlink="http://www.w3.org/1999/xlink"><clipPath id="a"><path d="m0-.000244h218v218h-218z"/></clipPath><g clip-path="url(#a)"><path d="m214.807 124.732c1.763 0 3.193-1.429 3.193-3.193v-10.474c0-.616-.111-1.225-.317-1.8l-.002-.006c-.003-.009-.008-.019-.011-.028-.044-.119-.091-.237-.143-.353-.002-.004-.004-.008-.006-.012-.054-.121-.112-.24-.176-.356-.003-.005-.006-.01-.008-.014-.063-.114-.129-.227-.201-.336-.038-.059-.081-.116-.121-.173-.038-.053-.073-.107-.112-.159l-25.477-33.2697c-.996-1.3144-2.579-2.0991-4.235-2.0991h-27.599v-9.3663h31.814c2.935 0 5.322-2.3874 5.322-5.3223v-9.7632c0-2.9349-2.387-5.3222-5.322-5.3222h-40.556c-.724 0-1.427.2465-1.993.6987l-21.488 17.1671h-39.8361c-1.7636 0-3.1934 1.4297-3.1934 3.1933s1.4298 3.1934 3.1934 3.1934h40.9551c.725 0 1.428-.2465 1.993-.6987l21.488-17.1671h38.372v7.6343h-35.157c-.724 0-1.427.2465-1.993.6987l-21.483 17.167c-29.445 0-98.9595 0-124.66905 0v-7.6342h65.59165c1.7635 0 3.1933-1.4298 3.1933-3.1934s-1.4298-3.1933-3.1933-3.1933h-66.6561c-2.93491 0-5.322265 2.3873-5.322265 5.3222v9.7632c0 2.9349 2.387355 5.3223 5.322265 5.3223h.38661l14.03969 35.0243h-4.0543c-6.0712 0-11.01067 4.939-11.01067 11.01v23.179l-5.109802 12.88c-.650594 1.64.151152 3.496 1.790832 4.146 1.64011.651 3.49567-.151 4.14584-1.791l4.1343-10.421 8.9614 3.761c2.8847 9.573 11.7789 16.567 22.2795 16.567 9.2113 0 17.1892-5.381 20.9565-13.164h10.1051c3.7673 7.783 11.7451 13.164 20.9565 13.164 1.4391 0 2.8808-.133 4.2851-.394 5.7599-1.074 10.8689-4.265 14.3859-8.986.892-1.199 1.656-2.465 2.294-3.784h13.118l1.292 3.257c.497 1.253 1.698 2.017 2.969 2.017.392 0 .79-.073 1.177-.226 1.639-.65 2.441-2.506 1.79-4.146l-.358-.902h18.21c3.767 7.783 11.745 13.164 20.957 13.164 9.211 0 17.189-5.381 20.956-13.164h18.041c2.937 0 5.327-2.39 5.327-5.327v-20.382c0-1.763-1.43-3.193-3.194-3.193-1.763 0-3.193 1.43-3.193 3.193v19.322h-14.971c.195-1.21.301-2.451.301-3.715 0-12.83-10.438-23.267-23.268-23.267-5.29 0-10.171 1.778-14.084 4.763v-54.6981h27.074l4.202 5.4875h-17.122c-2.231 0-4.046 1.8151-4.046 4.0462v21.1104c0 2.231 1.815 4.046 4.046 4.046h37.868v8.003c0 1.764 1.43 3.193 3.194 3.193zm-61.602-59.1628v50.4138h-18.113v-13.948c0-1.764-1.43-3.1935-3.193-3.1935-1.764 0-3.193 1.4295-3.193 3.1935v13.948h-24.381v-35.0243h24.38v6.1729c0 1.7636 1.43 3.1934 3.193 3.1934 1.764 0 3.194-1.4298 3.194-3.1934v-7.0888zm-79.6467 50.4138v-35.0243h24.3803v35.0243zm-30.7665 0v-35.0243h24.3802v35.0243zm-29.5501-35.0243h23.163v35.0243h-9.1233zm5.0447 70.4553-5.6344-2.365 5.5067-13.881h7.3898c-4.3336 4.107-7.0897 9.858-7.2621 16.246zm23.2511 17.514c-9.308 0-16.8806-7.573-16.8806-16.881 0-9.294 7.5504-16.857 16.8397-16.879h.0817c9.2889.022 16.8392 7.585 16.8392 16.879.0005 9.308-7.572 16.881-16.88 16.881zm22.9666-13.165c.195-1.21.3002-2.451.3002-3.715 0-6.641-2.8012-12.636-7.2783-16.88h20.0411c-4.4771 4.244-7.2783 10.239-7.2783 16.88 0 1.265.1051 2.505.3001 3.715zm32.1669 12.878c-1.0193.19-2.0672.287-3.115.287-9.3076 0-16.8801-7.573-16.8801-16.881 0-9.294 7.5504-16.857 16.8392-16.879h.0818c9.2891.022 16.8401 7.585 16.8401 16.879 0 2.016-.352 3.977-1.029 5.822-.018.048-.037.095-.053.145-.549 1.452-1.302 2.831-2.251 4.105-2.553 3.428-6.259 5.745-10.433 6.522zm19.859-12.878c.194-1.218.293-2.459.293-3.715 0-6.641-2.801-12.636-7.278-16.88h7.389l8.171 20.595zm15.446 0-9.371-23.62c-.81-2.042-2.753-3.362-4.949-3.362h-100.2165c-2.1983 0-4.142 1.32-4.9514 3.362l-.7656 1.93v-7.08c0-2.549 2.0745-4.624 4.624-4.624h136.8585v18.629c-1.783 3.289-2.796 7.053-2.796 11.049 0 1.265.105 2.505.3 3.716zm41.7-20.596c9.308 0 16.88 7.573 16.88 16.88 0 9.308-7.572 16.881-16.88 16.881s-16.88-7.573-16.88-16.881c0-9.307 7.572-16.88 16.88-16.88zm2.41-44.4469h19.672l12.581 16.4299h-32.253z" fill="#374a5c"/><g fill="#fece03"><path d="m173.677 162.151c5.571 0 10.104-4.532 10.104-10.104 0-5.571-4.533-10.104-10.104-10.104-5.572 0-10.104 4.532-10.104 10.104s4.532 10.104 10.104 10.104zm0-13.821c2.049 0 3.717 1.667 3.717 3.717s-1.668 3.718-3.717 3.718c-2.05 0-3.718-1.668-3.718-3.718s1.668-3.717 3.718-3.717z"/><path d="m41.5369 141.943c-5.5714 0-10.1038 4.532-10.1038 10.104 0 5.571 4.5324 10.104 10.1038 10.104 5.5713 0 10.1042-4.532 10.1042-10.104 0-5.571-4.5329-10.104-10.1042-10.104zm0 13.822c-2.0497 0-3.7171-1.668-3.7171-3.718s1.6674-3.717 3.7171-3.717 3.7175 1.667 3.7175 3.717-1.6678 3.718-3.7175 3.718z"/><path d="m93.5569 141.943c-5.5714 0-10.1043 4.532-10.1043 10.104 0 5.571 4.5325 10.104 10.1043 10.104 5.5717 0 10.1041-4.532 10.1041-10.104 0-5.571-4.5328-10.104-10.1041-10.104zm0 13.822c-2.0498 0-3.7175-1.668-3.7175-3.718s1.6673-3.717 3.7175-3.717c2.0501 0 3.7174 1.667 3.7174 3.717s-1.6677 3.718-3.7174 3.718z"/></g></g></svg>