<svg fill="none" height="18" viewBox="0 0 18 18" width="18" xmlns="http://www.w3.org/2000/svg"><path d="m17.6491 7.36875h-8.46795v3.48045h4.83755c-.2086 1.125-.8415 2.0766-1.7954 2.7141-.8062.539-1.8351.8578-3.04449.8578-2.34141 0-4.32188-1.582-5.02969-3.7078-.17812-.5391-.28125-1.11564-.28125-1.70861s.10313-1.16953.28125-1.7086c.71016-2.12343 2.69063-3.70546 5.03203-3.70546 1.31955 0 2.50315.45468 3.43595 1.34531l2.5781-2.58047c-1.5586-1.453126-3.5906-2.3437512-6.01405-2.3437512-3.51328 0-6.55312 2.0156212-8.03203 4.9546912-.609374 1.21406-.956249 2.5875-.956249 4.04062 0 1.45317.346875 2.82417.956249 4.03827 1.47891 2.9391 4.51875 4.9547 8.03203 4.9547 2.42815 0 4.46255-.8062 5.94845-2.1797 1.6992-1.5656 2.6812-3.8719 2.6812-6.61171 0-.6375-.0562-1.24922-.1617-1.83984z" fill="#5490e9"/></svg>