<svg width="34" height="24" fill="none" xmlns="http://www.w3.org/2000/svg"><path fill-rule="evenodd" clip-rule="evenodd" d="M30.039 0H3.534C1.409 0 0 1.343 0 3.31v17.38C0 22.657 1.41 24 3.534 24h26.505c2.124 0 3.534-1.343 3.534-3.31V3.31c0-1.967-1.41-3.31-3.534-3.31zm.883 3.31v2.483l-.264.193c-1.492 1.093-3.853 2.822-8.57 6.428-.385.197-.89.548-1.433.925-1.061.736-2.266 1.572-2.985 1.558-1.455.016-3.034-1.028-4.218-1.81-.418-.277-.787-.52-1.083-.673C7.655 8.81 5.293 7.08 3.8 5.989l-.267-.196V3.31h27.388zM3.534 9.103V20.69h27.388V9.103a114.973 114.973 0 0 1-7.068 4.966c-1.325 1.302-3.814 3.639-6.184 3.31-3.268.329-5.788-2.042-7.068-3.31a115.07 115.07 0 0 1-7.068-4.966z" fill="#FBA402"/></svg>