<svg fill="none" height="38" viewBox="0 0 38 38" width="38" xmlns="http://www.w3.org/2000/svg"><g fill="#fff"><path d="m30.3998 10.45c0-1.25983-.5004-2.46801-1.3912-3.35881-.8908-.89079-2.099-1.39124-3.3588-1.39124h-17.09999c-1.25978 0-2.46796.50045-3.35876 1.39124-.8908.8908-1.39125 2.09898-1.39125 3.35881v13.3c0 1.2597.50045 2.4679 1.39125 3.3587s2.09898 1.3913 3.35876 1.3913h17.09999c1.2598 0 2.468-.5005 3.3588-1.3913s1.3912-2.099 1.3912-3.3587zm-12.8174 8.4189 10.9174-5.643v10.5241c0 .7558-.3003 1.4807-.8347 2.0152-.5345.5345-1.2594.8348-2.0153.8348h-17.09999c-.75587 0-1.48078-.3003-2.01526-.8348s-.83475-1.2594-.83475-2.0152v-10.5203l10.9174 5.6392.1558.0722c.1319.0485.2729.0672.4128.0548.14-.0125.2754-.0559.3966-.127zm-9.03259-11.26895h17.09999c.7559 0 1.4808.30027 2.0153.83475.5344.53448.8347 1.25938.8347 2.0153v.5719l-11.4 5.9261-11.4-5.9242v-.5738c0-.75592.30027-1.48082.83475-2.0153s1.25939-.83475 2.01526-.83475z"/><path d="m12.3498 32.2999c-.7375.0006-1.465-.1708-2.1247-.5006-.65962-.3298-1.23326-.809-1.6753-1.3993h17.1c1.7637 0 3.4551-.7007 4.7023-1.9478 1.2471-1.2471 1.9477-2.9386 1.9477-4.7022v-13.3c1.1533.8664 1.9 2.2458 1.9 3.8v9.5c0 2.2676-.9008 4.4423-2.5042 6.0457-1.6035 1.6034-3.7782 2.5042-6.0458 2.5042z"/></g></svg>