<svg fill="none" height="204" viewBox="0 0 204 204" width="204" xmlns="http://www.w3.org/2000/svg"><g fill="#fece03"><path d="m29.3867 153.058c-6.2376 0-11.3125 5.076-11.3125 11.316s5.0745 11.316 11.3125 11.316c6.2379 0 11.3128-5.076 11.3128-11.316s-5.0753-11.316-11.3128-11.316zm0 16.656c-2.9421 0-5.3359-2.396-5.3359-5.34s2.3938-5.34 5.3359-5.34c2.9424 0 5.3362 2.396 5.3362 5.34s-2.3938 5.34-5.3362 5.34z"/><path d="m155.25 175.691c6.238 0 11.313-5.077 11.313-11.316 0-6.24-5.075-11.317-11.313-11.317s-11.313 5.077-11.313 11.317c0 6.239 5.075 11.316 11.313 11.316zm0-16.657c2.942 0 5.336 2.396 5.336 5.34s-2.394 5.34-5.336 5.34-5.336-2.396-5.336-5.34 2.394-5.34 5.336-5.34z"/><path d="m42.48 157.417c-.563.765-.7291 1.752-.4474 2.659.4299 1.386.6482 2.831.6482 4.298 0 1.466-.2183 2.913-.6486 4.298-.2813.907-.1152 1.894.4482 2.659.563.764 1.4559 1.216 2.4058 1.216h94.8638c.95 0 1.843-.452 2.406-1.216.563-.765.729-1.752.448-2.659-.43-1.386-.648-2.832-.648-4.298 0-1.467.218-2.913.648-4.298.281-.907.115-1.894-.448-2.659-.563-.764-1.456-1.216-2.406-1.216h-94.8638c-.9491 0-1.8428.452-2.4062 1.216zm6.0611 4.761h87.5559c-.078.727-.118 1.46-.118 2.196s.04 1.469.118 2.196h-87.5563c.0777-.727.1171-1.46.1171-2.196s-.039-1.469-.1167-2.196z"/></g><path d="m79.8997 112.452c-1.6508 0-2.9883 1.337-2.9883 2.988s1.3375 2.988 2.9883 2.988h6.9543c1.6507 0 2.9883-1.337 2.9883-2.988s-1.3376-2.988-2.9883-2.988z" fill="#fff"/><g fill="#fece03"><path d="m17.0075 123.121c1.1061 0 2.1695-.617 2.6875-1.678l7.0551-14.447c.724-1.483.1088-3.273-1.3738-3.997-1.4834-.724-3.2728-.108-3.9963 1.374l-7.0552 14.448c-.7239 1.483-.1087 3.272 1.3738 3.996.422.206.8686.304 1.3089.304z"/><path d="m31.1406 123.121c1.1061 0 2.1695-.617 2.6875-1.678l7.0555-14.447c.724-1.483.1092-3.273-1.3738-3.997-1.4838-.724-3.2727-.109-3.9963 1.374l-7.0555 14.448c-.724 1.483-.1092 3.272 1.3738 3.996.4223.206.869.304 1.3088.304z"/><path d="m45.2744 123.121c1.1061 0 2.1695-.617 2.6875-1.678l7.0555-14.447c.724-1.483.1092-3.273-1.3738-3.997-1.4834-.724-3.2724-.109-3.9963 1.374l-7.0556 14.448c-.7239 1.483-.1091 3.272 1.3739 3.996.4219.206.8686.304 1.3088.304z"/></g><path d="m202.908 106.097-7.362-17.0547c-.038-.0877-.081-.173-.126-.2562l-12.599-30.0976c-.637-1.5224-2.389-2.24-3.909-1.6025-1.523.6371-2.24 2.3878-1.603 3.9098l11.581 27.6663-3.958 1.7105-26.465-50.8107v-.0004l-.586-1.1244-3.502-6.724c-.003-.0064-.005-.0132-.008-.0195-.084-.1614-.157-.3256-.221-.4917-.021-.055-.037-.1112-.056-.1666-.043-.1215-.083-.2434-.115-.3673-.015-.0586-.027-.1176-.04-.1765-.028-.1275-.053-.2554-.071-.3849-.007-.051-.013-.102-.018-.1534-.015-.1435-.024-.2881-.026-.4335-.01-.5969.084-1.1977.297-1.781.481-1.3169 1.459-2.3357 2.755-2.8692 2.497-1.0276 5.378.1642 6.422 2.6564l9.353 22.344c.637 1.5228 2.389 2.2404 3.909 1.6025 1.523-.6371 2.24-2.3878 1.603-3.9099l-9.353-22.3444c-2.308-5.5135-8.682-8.1496-14.209-5.8753-2.825 1.1622-5.047 3.4756-6.095 6.3459-.201.5494-.355 1.1116-.463 1.6794l-45.443 18.6967c-.774-.1096-1.564-.1701-2.369-.1701h-12.0958c-4.2717 0-7.7468 3.4763-7.7468 7.7492v12.836h-8.0234c-3.8102 0-6.9105 3.1007-6.9105 6.9125v16.9727c0 .5159-.4191.9359-.9339.9359h-57.6101c-3.81066.0004-6.9105 3.101-6.9105 6.9125v7.2495c0 1.651 1.33755 2.989 2.98828 2.989s2.98828-1.338 2.98828-2.989v-7.2495c0-.516.41916-.9359.93394-.9359h57.6105c3.8102 0 6.9105-3.1007 6.9105-6.9125v-16.9727c0-.5159.4191-.9359.9339-.9359h11.0116 30.683 2.061c.437 0 .827.2438 1.019.6371l9.085 18.6158c.26.5327.397 1.1268.397 1.7189v36.2027c0 .626-.508 1.136-1.134 1.136h-6.792-56.1835-55.602c-.51478 0-.93394-.42-.93394-.936v-12.327c0-1.651-1.33755-2.988-2.98828-2.988s-2.98828 1.337-2.98828 2.988v12.327c0 3.812 3.09984 6.913 6.9105 6.913h52.6141v6.529h-32.948c-11.6324 0-21.09649 9.463-21.09649 21.105 0 11.632 9.46369 21.096 21.09649 21.096h131.4834c11.633 0 21.097-9.463 21.097-21.105 0-11.632-9.464-21.096-21.097-21.096h-36.376v-6.529h3.804c3.921 0 7.111-3.191 7.111-7.113v-36.2027c0-1.495-.347-2.9955-1.003-4.3398l-9.085-18.6162c-1.047-2.1452-3.13-3.6162-5.463-3.9286v-1.5288l37.512-20.0163 24.87 47.7511-28.052 12.1233c-1.899.821-3.09 2.616-3.107 4.685-.017 2.037 1.172 3.896 3.029 4.736l27.009 12.206c1.735.785 3.58 1.182 5.485 1.182 1.828 0 3.605-.367 5.283-1.092l6.885-2.975c6.742-2.914 9.858-10.773 6.946-17.518zm-137.4069 30.647h50.2069v6.529h-.001-50.2059zm92.5589 12.506c8.337 0 15.12 6.782 15.12 15.129 0 8.337-6.783 15.12-15.12 15.12h-131.4834c-8.3369 0-15.1199-6.783-15.1199-15.129 0-8.337 6.7826-15.12 15.1199-15.12h35.9359 56.1835zm-46.99-86.5321v.5056 3.2576h-24.7047v-.0004-12.836c0-.9774.7941-1.7727 1.7703-1.7727h12.0964c.737 0 1.458.0749 2.154.216.271.0546.536.1223.799.1968.061.0175.123.0339.184.0522.239.0725.475.1542.706.2423.079.0298.158.0609.236.0928.218.0892.434.1837.645.2865.081.0394.161.082.241.1235.173.0896.344.1837.512.2825.096.0569.192.1155.287.1753.163.1028.323.21.479.3211.072.0506.144.0996.213.1518.188.1399.37.2869.548.4383.061.0518.122.104.181.157.184.1634.363.3319.534.5072.04.0398.077.0809.116.1215.186.1961.369.3965.54.606.002.0028.004.0056.006.008.189.2311.369.4702.538.7164.003.0044.007.0092.01.0136.169.2458.327.4992.476.759.005.0083.009.0163.014.0243.595 1.0459 1.019 2.1966 1.241 3.4098.005.0311.011.0622.016.0936.049.2805.087.5642.113.8507.004.0383.006.0765.009.1152.024.292.039.5865.039.8837v.0008zm5.449-4.1944c-.588-2.283-1.647-4.3768-3.063-6.1785-.035-.0451-.07-.0901-.106-.1351-.106-.1327-.214-.263-.324-.3921-.059-.0693-.119-.1378-.179-.206-.097-.1095-.194-.2187-.293-.3259-.085-.0912-.171-.1809-.258-.2701-.082-.0849-.163-.1702-.247-.2534-.133-.1315-.269-.2594-.405-.3861-.044-.0403-.085-.0817-.129-.1215-.359-.3264-.732-.6383-1.12-.9336l38.267-15.7446c.011.0255.025.0498.035.0753.117.2781.241.5534.382.8224l2.721 5.2243zm77.071 59.6055-6.884 2.976c-1.888.815-4.06.798-5.935-.049l-25.305-11.437 29.048-12.5538c.083-.0275.165-.0566.246-.0917l6.485-2.8129 6.176 14.3054c1.607 3.72-.112 8.056-3.831 9.663z" fill="#fff"/><path d="m117.708 108.468c2.12 0 3.844-1.725 3.844-3.844v-10.3224c0-.5777-.133-1.159-.389-1.6862l-6.907-14.1529c-.64-1.3112-1.997-2.1583-3.455-2.1583h-30.5245c-2.1197 0-3.8441 1.7248-3.8441 3.8445v14.0593c0 1.0192.4155 2.0153 1.1423 2.7349l10.5411 10.4161c.7239.715 1.6837 1.109 2.7014 1.109zm-35.2991-15.1505v-11.0371h27.0601l6.107 12.5133v7.6983h-23.8827z" fill="#fff"/></svg>