<svg width="160" height="160" viewBox="0 0 160 160" fill="none" xmlns="http://www.w3.org/2000/svg">
<g clip-path="url(#clip0)">
<path d="M95.5571 55.8056C104.066 58.0858 109.134 66.8637 106.854 75.3729C106.205 77.7956 106.538 80.3258 107.792 82.4975C109.046 84.6693 111.07 86.2229 113.493 86.8723C114.304 87.0894 115.119 87.1932 115.921 87.1932C120.066 87.1932 123.87 84.4227 124.992 80.233C129.952 61.7221 118.928 42.6276 100.417 37.6676C95.4153 36.3276 90.2581 39.3056 88.9175 44.3066C87.5779 49.3069 90.5565 54.4654 95.5571 55.8056ZM94.9547 45.9243C95.1715 45.114 95.6912 44.4372 96.4177 44.0178C96.9014 43.7385 97.4383 43.596 97.982 43.596C98.2548 43.596 98.5295 43.6319 98.8001 43.7044C113.982 47.7726 123.024 63.4336 118.956 78.6159C118.508 80.288 116.783 81.2835 115.111 80.8357C114.301 80.6186 113.624 80.0992 113.205 79.373C112.785 78.6468 112.674 77.8006 112.891 76.9906C116.062 65.1529 109.012 52.9417 97.1749 49.7694C95.5028 49.321 94.5066 47.5961 94.9547 45.9243Z" fill="#FECE03"/>
<path d="M106.982 13.1664C101.983 11.8268 96.8233 14.8048 95.4831 19.8057C94.8341 22.2281 95.1672 24.7586 96.4212 26.9303C97.6752 29.1024 99.7 30.6558 102.122 31.3048C124.141 37.2051 137.255 59.9191 131.355 81.9382C130.706 84.3608 131.04 86.891 132.294 89.0628C133.547 91.2345 135.572 92.7882 137.994 93.4372C138.805 93.6544 139.62 93.7581 140.422 93.7581C144.568 93.7581 148.371 90.988 149.494 86.7982C158.074 54.7772 139.003 21.7463 106.982 13.1664ZM143.457 85.1802C143.009 86.8526 141.285 87.8485 139.612 87.4001C138.802 87.1829 138.125 86.6638 137.706 85.9376C137.706 85.9376 137.706 85.9376 137.706 85.9373C137.286 85.2111 137.175 84.3649 137.392 83.5549C144.183 58.2073 129.087 32.0597 103.74 25.2676C102.068 24.8195 101.072 23.0946 101.52 21.4228C101.896 20.0217 103.167 19.0955 104.553 19.0955C104.821 19.0955 105.094 19.1302 105.365 19.2026C134.057 26.8913 151.145 56.4884 143.457 85.1802Z" fill="#FECE03"/>
<path d="M117.284 109.017C113.137 101.834 103.92 99.3634 96.7373 103.511L84.0137 110.857C83.415 111.203 82.7172 111.295 82.0472 111.116C81.3785 110.937 80.8198 110.507 80.4739 109.908L51.8299 60.295C51.484 59.6954 51.3918 58.9973 51.5711 58.3286C51.7502 57.6599 52.1789 57.1011 52.7783 56.7552L65.5016 49.4094C72.684 45.2624 75.1539 36.0451 71.0072 28.8627L58.6835 7.51738C54.5369 0.33466 45.3196 -2.13457 38.1369 2.01175L33.8143 4.50755C9.5804 18.4989 1.24775 49.5972 15.2388 73.8308L25.7664 92.0648C26.6291 93.5594 28.5399 94.0712 30.0349 93.2085C31.5295 92.3457 32.0416 90.4345 31.1786 88.9399L20.6513 70.706C10.6116 53.317 13.6836 31.8985 26.7754 17.9668L47.2314 53.3976C46.4458 54.3563 45.8646 55.4784 45.5343 56.7115C44.9231 58.9926 45.2368 61.375 46.4177 63.4201L75.0617 113.033C76.2422 115.078 78.1487 116.541 80.4301 117.152C81.6629 117.483 82.9253 117.541 84.1484 117.34L104.484 152.562C97.4064 154.239 89.9815 154.147 82.7584 152.212C71.2775 149.136 61.6815 141.773 55.7387 131.479L45.2396 113.294C44.3766 111.799 42.4657 111.287 40.9711 112.15C39.4765 113.013 38.9644 114.924 39.8274 116.419L50.3265 134.604C57.104 146.343 68.0477 154.74 81.141 158.249C85.5133 159.42 89.9499 160 94.3584 160C103.152 160 111.831 157.693 119.65 153.179L123.973 150.683C127.452 148.674 129.941 145.43 130.981 141.55C132.021 137.669 131.487 133.616 129.478 130.136L117.284 109.017ZM36.9388 9.92005L41.2614 7.42426C43.2951 6.24995 45.6646 5.93841 47.9326 6.54587C50.2009 7.15365 52.0967 8.60857 53.271 10.6422L65.5947 31.9876C68.0183 36.1858 66.575 41.5733 62.3768 43.9972L52.3595 49.7806L31.4876 13.6295C33.1869 12.2796 35.0043 11.0372 36.9388 9.92005ZM124.943 139.933C124.336 142.201 122.881 144.097 120.847 145.271L116.525 147.767C114.601 148.878 112.618 149.836 110.59 150.639L89.8449 114.707L99.8625 108.924C104.061 106.5 109.448 107.944 111.872 112.141L124.065 133.262C125.239 135.295 125.551 137.664 124.943 139.933Z" fill="white"/>
<path d="M35.5362 99.5362C34.7112 99.5362 33.9082 99.8706 33.3238 100.452C32.7426 101.033 32.4114 101.836 32.4114 102.661C32.4114 103.483 32.7426 104.289 33.3238 104.87C33.9082 105.452 34.7144 105.786 35.5362 105.786C36.358 105.786 37.1642 105.452 37.7455 104.87C38.3267 104.289 38.661 103.483 38.661 102.661C38.661 101.836 38.3267 101.033 37.7455 100.452C37.1642 99.8703 36.358 99.5362 35.5362 99.5362Z" fill="#FECE03"/>
</g>
<defs>
<clipPath id="clip0">
<rect width="160" height="160" fill="white"/>
</clipPath>
</defs>
</svg>
