<svg fill="none" height="160" viewBox="0 0 160 160" width="160" xmlns="http://www.w3.org/2000/svg" xmlns:xlink="http://www.w3.org/1999/xlink"><clipPath id="a"><path d="m0 0h160v160h-160z"/></clipPath><g clip-path="url(#a)"><path d="m95.5576 55.8056c8.5084 2.2802 13.5764 11.0581 11.2964 19.5673-.649 2.4227-.315 4.9529.939 7.1246 1.254 2.1718 3.278 3.7254 5.7 4.3748.812.2171 1.626.3209 2.428.3209 4.146 0 7.949-2.7705 9.072-6.9602 4.96-18.5109-6.064-37.6054-24.575-42.5654-5.0022-1.34-10.1594 1.638-11.5 6.639-1.3396 5.0003 1.639 10.1588 6.6396 11.499zm-.6024-9.8813c.2168-.8103.7365-1.4871 1.463-1.9065.4837-.2793 1.0206-.4218 1.5643-.4218.2728 0 .5475.0359.8181.1084 15.1824 4.0682 24.2244 19.7292 20.1564 34.9115-.448 1.6721-2.174 2.6676-3.845 2.2198-.81-.2171-1.488-.7365-1.907-1.4627s-.531-1.5724-.314-2.3824c3.172-11.8377-3.878-24.0489-15.7156-27.2212-1.6721-.4484-2.6683-2.1733-2.2202-3.8451z" fill="#fece03"/><path d="m106.983 13.1664c-4.999-1.3396-10.1592 1.6384-11.4994 6.6393-.649 2.4224-.3159 4.9529.9381 7.1246 1.2539 2.1721 3.2788 3.7255 5.7013 4.3745 22.019 5.9003 35.133 28.6143 29.233 50.6334-.649 2.4226-.316 4.9528.938 7.1246 1.254 2.1717 3.278 3.7254 5.701 4.3744.811.2172 1.625.3209 2.428.3209 4.145 0 7.948-2.7701 9.071-6.9599 8.58-32.021-10.49-65.0519-42.511-73.6318zm36.475 72.0138c-.448 1.6724-2.172 2.6683-3.846 2.2199-.81-.2172-1.486-.7363-1.905-1.4625-.001 0-.001 0-.001-.0003-.419-.7262-.53-1.5724-.314-2.3824 6.792-25.3476-8.304-51.4952-33.652-58.2873-1.672-.4481-2.668-2.173-2.22-3.8448.376-1.4011 1.648-2.3273 3.034-2.3273.268 0 .54.0347.812.1071 28.691 7.6887 45.779 37.2858 38.092 65.9776z" fill="#fece03"/><path d="m117.284 109.017c-4.147-7.183-13.363-9.6536-20.5464-5.506l-12.7237 7.346c-.5987.346-1.2965.438-1.9664.259-.6687-.179-1.2275-.609-1.5734-1.208l-28.644-49.613c-.3459-.5996-.4381-1.2977-.2587-1.9664.179-.6687.6078-1.2275 1.2071-1.5734l12.7233-7.3458c7.1824-4.147 9.6523-13.3643 5.5057-20.5467l-12.3237-21.34532c-4.1466-7.18272-13.3639-9.65195-20.5467-5.50563l-4.3225 2.4958c-24.23395 13.99135-32.56661 45.08965-18.5755 69.32325l10.5275 18.234c.8628 1.4946 2.7736 2.0064 4.2685 1.1437 1.4946-.8628 2.0068-2.774 1.1437-4.2686l-10.5272-18.2339c-10.0398-17.389-6.9678-38.8075 6.124-52.7392l20.456 35.4308c-.7855.9587-1.3668 2.0808-1.6971 3.3139-.6112 2.2811-.2974 4.6635.8834 6.7086l28.644 49.6129c1.1806 2.045 3.087 3.508 5.3685 4.119 1.2327.331 2.4951.389 3.7182.188l20.3354 35.222c-7.0774 1.677-14.5023 1.585-21.7253-.35-11.4809-3.076-21.0769-10.439-27.0197-20.733l-10.4991-18.185c-.8631-1.495-2.7739-2.007-4.2685-1.144s-2.0068 2.774-1.1437 4.269l10.4991 18.185c6.7774 11.739 17.7211 20.136 30.8145 23.645 4.3722 1.171 8.8088 1.751 13.2173 1.751 8.7934 0 17.4724-2.307 25.2914-6.821l4.323-2.496c3.479-2.009 5.968-5.253 7.008-9.133 1.04-3.881.506-7.934-1.503-11.414zm-80.3449-99.09695 4.3226-2.49579c2.0336-1.17431 4.4031-1.48585 6.6711-.87839 2.2684.60778 4.1642 2.0627 5.3385 4.09633l12.3237 21.3454c2.4236 4.1982.9802 9.5857-3.218 12.0096l-10.0172 5.7834-20.872-36.1511c1.6993-1.3499 3.5167-2.5923 5.4513-3.70945zm88.0039 130.01295c-.607 2.268-2.062 4.164-4.096 5.338l-4.322 2.496c-1.924 1.111-3.907 2.069-5.934 2.872l-20.7458-35.932 10.0175-5.783c4.1983-2.424 9.5853-.98 12.0093 3.217l12.194 21.121c1.174 2.033 1.486 4.402.877 6.671z" fill="#374a5c"/><path d="m35.5364 99.5362c-.8249 0-1.628.3344-2.2123.9158-.5812.581-.9125 1.384-.9125 2.209 0 .822.3313 1.628.9125 2.209.5843.582 1.3905.916 2.2123.916.8219 0 1.6281-.334 2.2093-.916.5812-.581.9156-1.387.9156-2.209 0-.825-.3344-1.628-.9156-2.209-.5812-.5817-1.3874-.9158-2.2093-.9158z" fill="#fece03"/></g></svg>