<svg fill="none" height="25" viewBox="0 0 25 25" width="25" xmlns="http://www.w3.org/2000/svg"><path clip-rule="evenodd" d="m18.6844 1.00009 4.4211 1.26316c1.2104.03485 1.8947.89754 1.8947 1.89474 0 11.54941-9.36 20.84681-20.8421 20.84211-.99947 0-1.86189-.6845-1.89473-1.8947l-1.26316-4.4211c-.175728-.778.34453-1.8095 1.26316-2.5263l5.05263-1.8947c.61871-.211 1.64986.0422 2.52631.6315l1.26319 1.8948c2.449-1.2088 4.4738-3.2343 5.6842-5.6842l-1.8948-1.2632c-.5858-.87697-.8389-1.90846-.6315-2.52632l1.8947-5.05263c.7195-.91693 1.7506-1.442048 2.5263-1.26316zm-15.15787 17.68421 1.26315 4.4211c9.97262-.0472 18.26872-8.3432 18.31582-18.31583l-4.4211-1.26316-1.8947 4.42105 3.1579 2.52634c-2.0761 4.9667-4.5164 7.3976-9.4737 9.4737l-2.52632-3.1579z" fill="#feb803" fill-rule="evenodd"/></svg>