<svg fill="none" height="203" viewBox="0 0 203 203" width="203" xmlns="http://www.w3.org/2000/svg" xmlns:xlink="http://www.w3.org/1999/xlink"><clipPath id="a"><path d="m0 0h203v203h-203z"/></clipPath><g clip-path="url(#a)"><path d="m49.0585 155.759c-6.5404 0-11.8417 5.301-11.8417 11.842 0 6.54 5.3013 11.841 11.8417 11.841 6.5403 0 11.8416-5.301 11.8416-11.841 0-6.541-5.3013-11.842-11.8416-11.842zm0 16.917c-2.8035 0-5.075-2.272-5.075-5.075 0-2.804 2.2715-5.075 5.075-5.075 2.8034 0 5.075 2.271 5.075 5.075 0 2.803-2.2716 5.075-5.075 5.075z" fill="#fece03"/><path d="m140.408 179.442c6.54 0 11.842-5.301 11.842-11.841 0-6.541-5.302-11.842-11.842-11.842s-11.842 5.301-11.842 11.842c0 6.54 5.302 11.841 11.842 11.841zm0-16.916c2.804 0 5.075 2.271 5.075 5.075 0 2.803-2.271 5.075-5.075 5.075-2.803 0-5.075-2.272-5.075-5.075 0-2.804 2.272-5.075 5.075-5.075z" fill="#fece03"/><path d="m165.783 167.601c0-7.182-3.043-14.028-8.374-18.838-5.331-4.813-12.451-7.14-19.596-6.405l-2.584-7.781-1.449-7.238 4.737-30.7885 22.046-20.4189c.249-.0529.504-.0876.758-.1586l2.909-.8326 1.861 4.1895c.545 1.2109 1.747 1.9923 3.076 1.9956h30.45c1.368 0 2.602-.8243 3.125-2.0881.524-1.2638.233-2.7192-.733-3.6873l-12.813-12.8164-10.286-50.299c-.241-1.1812-1.09-2.1443-2.232-2.52922-1.141-.38657-2.402-.13546-3.309.65752l-16.626 14.5493c-.588.5138-.981 1.2142-1.11 1.9857l-3.332 19.8325c-.11.6559-.026 1.3282.243 1.9362l2.03 4.6042-3.538 2.8959c-1.129.9367-2.062 2.0866-2.748 3.3834l-38.33 27.8613c-.925.6723-1.448 1.7676-1.391 2.9108l1.902 37.3887-1.803 14.315h-10.5493c-1.8685 0-3.3834 1.514-3.3834 3.383h-6.7666v-10.15h13.5333c1.868 0 3.383-1.515 3.383-3.383v-6.767c0-.344-.053-.687-.155-1.014l-16.9166-54.1338c-.4444-1.4108-1.7512-2.369-3.2281-2.369v-6.7667h-6.7666v6.7667h-20.3v-6.7667h-6.7667v6.7667c-1.8684 0-3.3833 1.5149-3.3833 3.3833v40.6005h-13.5334v-20.3005c0-7.4737-6.0596-13.5333-13.5333-13.5333h-3.3833v6.7667h3.3833c3.7369 0 6.7667 3.0298 6.7667 6.7666v20.3005h-13.5334v-3.384h3.3834c1.8684 0 3.3833-1.515 3.3833-3.383v-10.1501c0-1.8685-1.5149-3.3834-3.3833-3.3834h-13.53337c-1.86843 0-3.38333 1.5149-3.38333 3.3834v10.1501c0 1.868 1.5149 3.383 3.38333 3.383h3.38334v3.384h-3.38334c-1.86843 0-3.38333 1.514-3.38333 3.383v57.517c0 1.868 1.5149 3.383 3.38333 3.383h21.78187c1.3811 3.876 3.6807 7.358 6.7022 10.15h-31.8674v6.767h203v-6.767h-45.394c5.209-4.786 8.176-11.535 8.177-18.608zm-159.01633-69.3588h6.76663v3.3838h-6.76663zm152.25033 69.3588c0 10.277-8.331 18.608-18.609 18.608-10.277 0-18.608-8.331-18.608-18.608 0-10.278 8.331-18.609 18.608-18.609 10.273.013 18.595 8.336 18.609 18.609zm3.086-138.1934 11.341-9.9188 9.327 45.5974c.131.6492.451 1.2473.92 1.7148l7.758 7.7579h-20.083l-2.158-4.8586-7.218-16.2394-2.848-6.4081zm-6.767 32.1928 2.101-1.7181 3.998 9.0002-1.989.5683c-2.138.6294-4.414-.4064-5.342-2.4334-.874-1.875-.366-4.1053 1.235-5.417zm-7.809 7.0641c.125.4113.272.8144.443 1.2092.91 1.9643 2.367 3.6246 4.196 4.7826l-19.134 17.7229c-.56.5187-.928 1.2126-1.041 1.9692l-3.505 22.8736c-3.486-2.498-8.103-2.752-11.842-.652l-1.249-24.5625zm-35.877 80.3275c1.707 0 3.145-1.27 3.357-2.964l2.225-17.823v-.058l.278-2.219c.272-2.225 2.119-3.923 4.359-4.007 2.241-.085 4.21 1.47 4.648 3.669l2.111 10.525c.023.139.059.274.107.406l2.482 7.444c-9.747 3.795-16.17 13.177-16.184 23.636 0 .571.048 1.13.085 1.691h-13.618v-20.3zm-16.9167 3.384v10.15h-6.7666v-10.15zm.0512-37.217h-27.1178v-27.0668h18.6595zm-44.0345 3.383c1.8684 0 3.3833-1.515 3.3833-3.383v-40.6001h27.9637l2.1146 6.7666h-19.9283c-1.8684 0-3.3833 1.5149-3.3833 3.3834v33.8331c0 1.869 1.5149 3.384 3.3833 3.384h32.6158l1.2176 3.897v2.869h-60.9c-.8244 0-1.619.301-2.2369.846l-22.7218 20.019h-5.49133v-31.015zm-43.98333 50.75v-12.968h6.76663c.8244 0 1.619-.301 2.2369-.846l22.7284-20.019h42.7014v33.833h-6.8476c.0363-.561.0842-1.12.0842-1.691 0-14.015-11.3609-25.375-25.375-25.375-14.014 0-25.375 11.36-25.375 25.375 0 .571.0479 1.13.0843 1.691zm23.68333-1.691c0-10.278 8.3311-18.609 18.6083-18.609s18.6084 8.331 18.6084 18.609c0 10.277-8.3312 18.608-18.6084 18.608-10.2722-.013-18.5951-8.336-18.6083-18.608zm35.8058 18.608c3.0232-2.79 5.3212-6.274 6.699-10.15h11.6285c1.8685 0 3.3834-1.515 3.3834-3.383v-3.384h6.7666v3.384c0 1.868 1.5149 3.383 3.3834 3.383h18.3953c1.379 3.876 3.681 7.358 6.702 10.15z" fill="#374a5c"/><path d="m13.5332 125.309h6.7667v6.767h-6.7667z" fill="#fece03"/></g></svg>