<svg fill="none" height="178" viewBox="0 0 178 178" width="178" xmlns="http://www.w3.org/2000/svg" xmlns:xlink="http://www.w3.org/1999/xlink"><clipPath id="a"><path d="m0 0h178v178h-178z"/></clipPath><g clip-path="url(#a)"><path d="m156.361 131.564-10.798-43.1962c-.29-1.1604-1.333-1.975-2.53-1.975h-8.194v-15.4324c0-1.4404-1.167-2.6075-2.607-2.6075-1.441 0-2.608 1.1671-2.608 2.6075v16.4347l-19.989 10.0747c-.865.4363-1.417 1.3169-1.433 2.2865l-.173 10.7997c-.012.708.265 1.39.766 1.889l10.841 10.799c.285.284.632.498 1.015.626l28.355 9.464-7.05 7.05-9.568-.027c-.003 0-.005 0-.007 0-1.437 0-2.603 1.163-2.608 2.6-.004 1.441 1.16 2.611 2.6 2.615l8.053.023v6.556l-16.387 8.206.044-6.547c.005-.698-.271-1.369-.765-1.862l-10.839-10.829c-.796-.794-2.01-.99-3.013-.486l-14.4975 7.28c-1.287.646-1.8064 2.213-1.1601 3.5.6459 1.286 2.2132 1.806 3.4998 1.16l12.8158-6.435 8.736 8.728-.054 8.111-19.5853 9.808h-29.1436l.0761-6.573 17.0004-8.539c1.2866-.646 1.806-2.214 1.1597-3.5-.6463-1.288-2.2138-1.806-3.5002-1.16l-17.0771 8.577-30.5367-19.991.3973-8.259 20.4283-20.134h19.1311l9.9979 10.032c1.0165 1.02 2.6676 1.022 3.6872.006 1.0204-1.016 1.0228-2.667.0066-3.687l-10.762-10.799c-.4891-.491-1.1538-.767-1.8471-.767h-18.6757v-18.5694l10.3511-31.1962c.0949-.2861.1394-.5869.1318-.8883l-.5069-19.7242h8.7404c1.4403 0 2.6074-1.1671 2.6074-2.6074 0-1.4404-1.1671-2.6074-2.6074-2.6074h-10.785l-16.8786-8.6699 21.7528-17.40535 14.6237 19.45165c.4927.6554 1.2648 1.0406 2.0842 1.0406h15.2796l-6.326 6.3502c-1.0162 1.0204-1.0131 2.6711.0073 3.6873 1.23 1.0158 2.4597 1.0134 3.6877-.0073l8.913-8.9473 15.299 15.2989h-15.302c-.693 0-1.358.2761-1.847.7673l-10.7577 10.7989c-.4867.4884-.7603 1.1504-.7603 1.8401v10.7993c0 1.4403 1.1671 2.6074 2.6074 2.6074 1.4406 0 2.6076-1.1671 2.6076-2.6074v-9.7222l9.233-9.2685h17.906v11.1837c0 1.4403 1.167 2.6074 2.607 2.6074 1.441 0 2.608-1.1671 2.608-2.6074v-13.7574c0-.0111.001-.0223.001-.0337 0-.7266-.297-1.383-.776-1.8558l-21.582-21.5821c-.002-.0025-.004-.0049-.007-.0073-.516-.5142-1.193-.7666-1.869-.7593h-20.2272l-15.4565-20.55898c-.4241-.563555-1.0579-.931722-1.7577-1.0200265-.6995-.0900428-1.4052.1102065-1.9556.5506865l-26.9944 21.59912c-.4582.3654-.7905.8963-.9167 1.4689l-13.8962 62.3103c-.3132 1.4056.5719 2.7993 1.9775 3.1125 1.311.2813 2.3484-.3775 3.1125-1.9774l13.1616-59.0173 16.644 8.5495.5239 20.3973-10.3403 31.1639c-.088.2649-.1328.5423-.1328.8211v19.7125l-26.6339 8.772 4.3061-19.3057c.3132-1.4055-.5719-2.799-1.9775-3.1125-1.4052-.3119-2.7993.5718-3.1126 1.9774l-5.3055 23.7868c-.1913.861.0806 1.795.7074 2.418l10.0487 9.981-.4624 9.608c-.0445.923.4029 1.801 1.1761 2.307l31.846 20.849-.1085 9.369c.1345 1.605 1.0037 2.484 2.6071 2.638h32.3976c.4053 0 .8053-.095 1.1673-.276l43.196-21.631c.883-.442 1.44-1.345 1.44-2.332v-9.687l10.035-10.034c.71-.67.88-1.648.686-2.476zm-127.3379-9.02 18.1702-5.984-12.1446 11.969zm84.2369-13.011.131-8.116 19.462-9.8094h8.145l9.152 36.6114-27.268-9.101z" fill="#374a5c"/><path d="m89.0789 75.5944c-1.4403 0-2.6074 1.1671-2.6074 2.6074v9.7188l-10.0351 10.0344c-1.0187 1.0183-1.0187 2.669-.0004 3.687 1.229 1.019 2.4583 1.019 3.6873.001l10.7989-10.799c.4891-.4891.7638-1.1521.7638-1.844v-8.1907h19.123c1.44 0 2.607-1.1671 2.607-2.6075 0-1.4403-1.167-2.6074-2.607-2.6074z" fill="#fece03"/></g></svg>