<?xml version="1.0" standalone="no"?>
<!DOCTYPE svg PUBLIC "-//W3C//DTD SVG 20010904//EN"
 "http://www.w3.org/TR/2001/REC-SVG-20010904/DTD/svg10.dtd">
<svg version="1.0" xmlns="http://www.w3.org/2000/svg"
 width="125.000000pt" height="125.000000pt" viewBox="0 0 125.000000 125.000000"
 preserveAspectRatio="xMidYMid meet">
<metadata>
Created by potrace 1.14, written by Peter Selinger 2001-2017
</metadata>
<g transform="translate(0.000000,125.000000) scale(0.100000,-0.100000)"
fill="#000000" stroke="none">
<path d="M384 803 c-50 -87 -134 -233 -188 -325 -53 -92 -96 -170 -96 -173 0
-3 42 -5 93 -5 l92 0 28 44 c15 24 27 48 27 55 0 6 5 11 10 11 6 0 10 4 10 9
0 5 32 65 72 133 39 67 82 143 96 168 45 80 33 76 210 74 146 -1 162 -3 196
-23 95 -59 112 -183 36 -258 -42 -41 -87 -52 -205 -52 -55 0 -109 0 -121 0
-14 -1 -32 -22 -62 -75 -23 -40 -42 -77 -42 -80 0 -4 91 -6 203 -4 189 3 205
5 250 27 59 29 116 83 150 141 30 52 48 147 37 196 -4 18 -5 35 -3 38 11 10
-53 121 -91 159 -23 22 -66 52 -96 66 -53 25 -62 26 -285 29 l-230 3 -91 -158z"/>
<path d="M116 668 c-41 -65 -56 -94 -56 -106 0 -6 32 -10 77 -9 l77 2 33 55
c18 30 40 67 48 81 l14 27 -79 1 -80 1 -34 -52z"/>
<path d="M552 707 c-11 -14 -172 -287 -172 -293 0 -2 -13 -26 -30 -54 -16 -28
-30 -53 -30 -55 0 -3 42 -5 94 -5 l93 0 67 115 c36 63 66 120 66 125 0 10 20
12 105 12 40 0 41 1 80 71 22 40 41 77 43 84 5 18 -302 18 -316 0z"/>
</g>
</svg>
