<svg height="125pt" preserveAspectRatio="xMidYMid meet" viewBox="0 0 125 125" width="125pt" xmlns="http://www.w3.org/2000/svg"><g transform="matrix(.1 0 0 -.1 0 125)"><path d="m384 803c-50-87-134-233-188-325-53-92-96-170-96-173s42-5 93-5h92l28 44c15 24 27 48 27 55 0 6 5 11 10 11 6 0 10 4 10 9s32 65 72 133c39 67 82 143 96 168 45 80 33 76 210 74 146-1 162-3 196-23 95-59 112-183 36-258-42-41-87-52-205-52-55 0-109 0-121 0-14-1-32-22-62-75-23-40-42-77-42-80 0-4 91-6 203-4 189 3 205 5 250 27 59 29 116 83 150 141 30 52 48 147 37 196-4 18-5 35-3 38 11 10-53 121-91 159-23 22-66 52-96 66-53 25-62 26-285 29l-230 3z"/><path d="m116 668c-41-65-56-94-56-106 0-6 32-10 77-9l77 2 33 55c18 30 40 67 48 81l14 27-79 1-80 1z"/><path d="m552 707c-11-14-172-287-172-293 0-2-13-26-30-54-16-28-30-53-30-55 0-3 42-5 94-5h93l67 115c36 63 66 120 66 125 0 10 20 12 105 12 40 0 41 1 80 71 22 40 41 77 43 84 5 18-302 18-316 0z"/></g></svg>