<svg fill="none" height="234" viewBox="0 0 234 234" width="234" xmlns="http://www.w3.org/2000/svg"><g fill="#fece03"><path d="m27.9397 153.98c-6.5305 0-11.8435 5.317-11.8435 11.852 0 6.536 5.313 11.854 11.8435 11.854 6.5301 0 11.8435-5.318 11.8435-11.854 0-6.535-5.313-11.852-11.8435-11.852zm0 16.85c-2.7504 0-4.9876-2.242-4.9876-4.998 0-2.755 2.2376-4.996 4.9876-4.996s4.9876 2.241 4.9876 4.996c.0004 2.756-2.2376 4.998-4.9876 4.998z"/><path d="m75.3145 153.98c-6.5306 0-11.8436 5.317-11.8436 11.852 0 6.536 5.313 11.854 11.8436 11.854 6.53 0 11.8435-5.318 11.8435-11.854-.0005-6.535-5.3135-11.852-11.8435-11.852zm0 16.85c-2.7505 0-4.9876-2.242-4.9876-4.998 0-2.755 2.2376-4.996 4.9876-4.996 2.7499 0 4.9875 2.241 4.9875 4.996 0 2.756-2.2376 4.998-4.9875 4.998z"/><path d="m122.689 153.98c-6.53 0-11.843 5.317-11.843 11.852 0 6.536 5.313 11.854 11.843 11.854 6.531 0 11.844-5.318 11.844-11.854 0-6.535-5.313-11.852-11.844-11.852zm0 16.85c-2.75 0-4.987-2.242-4.987-4.998 0-2.755 2.237-4.996 4.987-4.996 2.751 0 4.988 2.241 4.988 4.996 0 2.756-2.238 4.998-4.988 4.998z"/><path d="m170.063 153.98c-6.53 0-11.843 5.317-11.843 11.852 0 6.536 5.313 11.854 11.843 11.854 6.531 0 11.844-5.318 11.844-11.854 0-6.535-5.313-11.852-11.844-11.852zm0 16.85c-2.75 0-4.987-2.242-4.987-4.998 0-2.755 2.238-4.996 4.987-4.996 2.75 0 4.988 2.241 4.988 4.996 0 2.756-2.238 4.998-4.988 4.998z"/><path d="m55.2959 162.405h-7.833c-1.893 0-3.4277 1.534-3.4277 3.427 0 1.894 1.5347 3.428 3.4277 3.428h7.833c1.8931 0 3.4278-1.534 3.4278-3.428 0-1.893-1.5347-3.427-3.4278-3.427z"/><path d="m102.918 162.405h-7.8328c-1.893 0-3.4277 1.534-3.4277 3.427 0 1.894 1.5347 3.428 3.4277 3.428h7.8328c1.893 0 3.428-1.534 3.428-3.428 0-1.893-1.535-3.427-3.428-3.427z"/><path d="m150.541 162.405h-7.833c-1.893 0-3.428 1.534-3.428 3.427 0 1.894 1.535 3.428 3.428 3.428h7.833c1.893 0 3.428-1.534 3.428-3.428 0-1.893-1.535-3.427-3.428-3.427z"/><path d="m132.704 106.278c-1.703-.827-3.754-.115-4.58 1.589l-5.845 12.055c-.826 1.704-.115 3.754 1.588 4.58.482.234.991.345 1.493.345 1.273 0 2.495-.712 3.087-1.933l5.846-12.056c.825-1.704.114-3.754-1.589-4.58z"/><path d="m144.433 106.278c-1.703-.827-3.753-.115-4.58 1.589l-5.845 12.055c-.826 1.704-.115 3.754 1.589 4.58.481.234.991.345 1.493.345 1.272 0 2.494-.712 3.087-1.933l5.845-12.056c.826-1.704.115-3.754-1.589-4.58z"/><path d="m50.2145 117.989h-7.9501c-1.893 0-3.4277 1.535-3.4277 3.428 0 1.894 1.5347 3.428 3.4277 3.428h7.9501c1.893 0 3.4277-1.534 3.4277-3.428.0005-1.893-1.5347-3.428-3.4277-3.428z"/></g><path d="m96.742 68.0611c-1.1486-2.4141-3.617-3.9735-6.2883-3.9735h-38.1384c-3.84 0-6.9642 3.1261-6.9642 6.9684v19.6405c0 1.3034.3638 2.5772 1.0521 3.6827l10.4678 16.8238c1.2801 2.057 3.4903 3.285 5.9122 3.285h44.1748c3.84 0 6.964-3.126 6.964-6.969v-1.769c0-1.03-.234-2.066-.676-2.995zm10.216 39.5699h-44.1748c-.0375 0-.0718-.019-.0919-.051l-10.4678-16.8232c-.011-.0178-.017-.0389-.017-.0608v-19.6405c0-.0626.0489-.1128.1088-.1128h38.1384c.042 0 .0795.0242.0978.063l16.5045 34.6943c.008.015.011.032.011.049v1.769c0 .063-.049.113-.109.113z" fill="#fff"/><path d="m233.055 181.454-7.772-12.573c-.995-1.61-3.108-2.109-4.718-1.114-1.61.996-2.109 3.108-1.113 4.718l7.062 11.424-30.429-7.183c.093-.203.174-.41.262-.615.036-.084.072-.167.107-.252.138-.328.268-.66.393-.993.036-.097.07-.194.106-.291.117-.327.229-.656.335-.988.034-.109.067-.22.1-.329.098-.325.192-.651.278-.98.032-.124.062-.249.092-.374.079-.319.155-.639.222-.961.03-.143.055-.288.083-.432.059-.309.118-.618.166-.929.027-.169.046-.341.069-.511.039-.291.081-.581.111-.874.023-.215.035-.434.052-.65.02-.253.045-.503.058-.757.02-.39.028-.783.031-1.177.001-.081.007-.162.007-.244 0-.002 0-.006 0-.008s0-.003 0-.005c0-.004-.001-.009-.001-.013 0-.421-.011-.847-.033-1.3-.006-.132-.017-.263-.025-.395l-.005-.068c-.009-.142-.022-.283-.033-.424-.04-.499-.092-.993-.159-1.484-.013-.096-.023-.192-.037-.29 0 0 0-.001-.001-.002-.026-.181-.058-.36-.088-.54l-.001-.008c-.041-.245-.084-.491-.132-.738-.001-.005-.002-.01-.004-.015-.032-.167-.068-.332-.104-.498-.004-.02-.008-.038-.012-.058-.052-.234-.105-.467-.161-.697-.004-.013-.007-.025-.01-.037-.04-.161-.081-.321-.124-.48-.005-.019-.009-.037-.014-.056-.061-.226-.125-.452-.191-.674-.009-.03-.019-.06-.027-.089-.042-.136-.083-.272-.126-.407-.008-.026-.016-.052-.024-.078-.07-.218-.143-.433-.219-.648-.019-.056-.04-.109-.059-.165-.037-.102-.072-.204-.11-.305-.012-.032-.023-.065-.035-.097-.078-.209-.161-.416-.246-.627l-.037-.092c-.031-.076-.064-.152-.095-.228-.017-.04-.032-.08-.049-.12-.018-.042-.034-.084-.052-.127-.073-.169-.149-.335-.226-.502l-.09-.198c-.071-.155-.142-.31-.214-.457-.071-.146-.144-.289-.219-.432l-.121-.237c-.08-.156-.161-.314-.241-.459-.05-.093-.102-.183-.155-.273l-.043-.075c-.28-.496-.58-.99-.893-1.47l-.037-.058c-.047-.074-.094-.148-.139-.215-.135-.203-.276-.402-.418-.6l-.119-.167c-.059-.085-.118-.169-.179-.251-.161-.219-.328-.433-.494-.644l-.058-.075c-.069-.09-.139-.179-.205-.26-.172-.212-.348-.42-.528-.629l-.045-.052c-.075-.087-.15-.175-.223-.257-.185-.21-.375-.415-.567-.619-.089-.094-.177-.188-.266-.279-.201-.207-.404-.41-.608-.607-.087-.084-.174-.168-.257-.245-.218-.206-.438-.409-.66-.604l-.228-.198c-.239-.207-.48-.41-.734-.615l-.165-.13c-.27-.214-.542-.424-.804-.616l-.064-.047c-1.329-.969-2.739-1.809-4.21-2.518-.012-.006-.024-.012-.037-.018-.762-.366-1.54-.697-2.334-.991-.114-.042-.23-.081-.345-.122-.161-.057-.321-.117-.483-.171-.015-.006-.056-.02-.071-.025-.079-.026-.162-.049-.242-.074-.186-.06-.374-.116-.562-.172-.102-.03-.2-.063-.304-.093l-.024-.007 5.541-23.559 27.855 45.062c.996 1.61 3.108 2.108 4.718 1.114 1.61-.996 2.109-3.108 1.114-4.718l-28.572-46.221c-1.344-2.174-3.843-3.315-6.362-2.902-2.522.41-4.53 2.283-5.115 4.771l-5.982 25.438c-.208-.004-.414-.016-.624-.016h-1.415v-33.658c0-6.4749-5.264-11.7436-11.735-11.7436h-34.454l-16.174-33.9985h10.49c2.985 0 5.415-2.4292 5.415-5.4154v-6.5081c0-2.9858-2.429-5.4154-5.415-5.4154h-58.6006c-1.893 0-3.4277 1.5343-3.4277 3.4277 0 1.8935 1.5347 3.4278 3.4277 3.4278h57.1596v3.6279h-14.476-66.4364-3.7312v-3.6279h13.678c1.8931 0 3.4278-1.5343 3.4278-3.4278 0-1.8934-1.5347-3.4277-3.4278-3.4277h-15.1186c-2.9862 0-5.4153 2.4291-5.4153 5.4154v6.5081c0 2.9858 2.4291 5.4154 5.4153 5.4154h1.7436v49.9011h-5.2878v-17.8961c0-2.5718-2.0923-4.6636-4.664-4.6636h-.0124v-7.9939c0-2.9922-2.4346-5.4268-5.4268-5.4268h-3.3011c-1.893 0-3.4277 1.5342-3.4277 3.4277s1.5347 3.4277 3.4277 3.4277h1.8725v6.5653h-.0124c-2.5717 0-4.664 2.0918-4.664 4.6636v17.8961h-.2756c-2.77096 0-5.02596 2.254-5.02596 5.025v26.302c0 2.391 1.67959 4.393 3.9195 4.9-5.72705 5.003-9.35634 12.356-9.35634 20.552 0 15.028 12.226 27.253 27.2532 27.253h144.0498c8.382 0 15.89-3.806 20.893-9.783l34.065 8.042c.484.114.971.169 1.453.169 1.992 0 3.893-.947 5.094-2.616 1.494-2.074 1.591-4.819.247-6.994zm-215.4611-88.5538h2.4972v15.6678h-2.4972zm-5.3011 22.5598h20.4407c3.505 0 6.3568-2.852 6.3568-6.357v-50.3992h60.8437l18.505 38.8984c.568 1.1942 1.773 1.9552 3.095 1.9552h36.619c2.69 0 4.879 2.1926 4.879 4.8876v33.658h-150.7392zm179.4062 49.962c0 .297-.009.592-.022.887-.005.108-.012.216-.019.324-.012.208-.028.416-.047.623-.01.112-.02.223-.032.333-.029.267-.062.533-.101.797-.01.068-.021.137-.032.205-.042.265-.089.527-.14.787-.021.102-.043.203-.065.305-.045.208-.092.415-.143.62-.024.096-.048.192-.073.287-.068.259-.141.516-.219.77-.01.034-.019.067-.029.1-.093.295-.192.588-.297.876-.023.063-.047.124-.071.186-.085.229-.175.456-.268.68-.031.074-.063.149-.094.222-.099.23-.203.458-.31.684-.024.051-.047.102-.071.153-.137.282-.28.561-.429.836-.003.005-.005.01-.008.014-.142.262-.292.52-.445.774-.037.061-.076.122-.113.183-.128.206-.258.41-.393.612-.039.058-.077.116-.116.174-3.676 5.383-9.861 8.926-16.859 8.926h-144.0498c-11.2475 0-20.39773-9.15-20.39773-20.424 0-11.247 9.15023-20.398 20.39773-20.398h144.0498c.983 0 1.948.074 2.894.209.124.018.248.036.368.056.222.035.443.075.663.118.112.022.221.044.328.067.194.042.387.087.58.134.166.04.328.082.488.125.239.065.477.13.712.203.021.007.04.013.061.019.262.083.521.172.778.265.062.021.124.042.186.065 4.268 1.58 7.866 4.552 10.246 8.364.09.144.178.289.265.436.951 1.611 1.69 3.362 2.172 5.217.007.028.015.057.022.085.074.287.14.577.201.87.009.042.018.084.026.126.057.281.107.565.152.85.009.052.017.102.025.152.042.279.076.561.107.844.007.058.014.115.02.174.025.254.043.51.059.766l.018.255c.017.338.025.678.025 1.02.001.015 0 .029 0 .044z" fill="#fff"/></svg>