<svg fill="none" height="196" viewBox="0 0 196 196" width="196" xmlns="http://www.w3.org/2000/svg"><g opacity=".8"><path d="m8.5217 4.26087c0 2.35321-1.90765 4.26087-4.26085 4.26087s-4.26085-1.90766-4.26085-4.26087 1.90765-4.26087 4.26085-4.26087 4.26085 1.90766 4.26085 4.26087z" fill="#e84e57"/><path d="m8.5217 4.26087c0 2.35321-1.90765 4.26087-4.26085 4.26087s-4.26085-1.90766-4.26085-4.26087 1.90765-4.26087 4.26085-4.26087 4.26085 1.90766 4.26085 4.26087z" fill="#ffbf1a"/><path d="m71.0148 4.26087c0 2.35321-1.9077 4.26087-4.2609 4.26087s-4.2608-1.90766-4.2608-4.26087 1.9076-4.26087 4.2608-4.26087 4.2609 1.90766 4.2609 4.26087z" fill="#e84e57"/><path d="m71.0148 4.26087c0 2.35321-1.9077 4.26087-4.2609 4.26087s-4.2608-1.90766-4.2608-4.26087 1.9076-4.26087 4.2608-4.26087 4.2609 1.90766 4.2609 4.26087z" fill="#ffbf1a"/><path d="m133.507 4.26087c0 2.35321-1.908 4.26087-4.261 4.26087s-4.261-1.90766-4.261-4.26087 1.908-4.26087 4.261-4.26087 4.261 1.90766 4.261 4.26087z" fill="#e84e57"/><path d="m133.507 4.26087c0 2.35321-1.908 4.26087-4.261 4.26087s-4.261-1.90766-4.261-4.26087 1.908-4.26087 4.261-4.26087 4.261 1.90766 4.261 4.26087z" fill="#ffbf1a"/><path d="m196 4.26087c0 2.35321-1.908 4.26087-4.261 4.26087s-4.261-1.90766-4.261-4.26087 1.908-4.26087 4.261-4.26087 4.261 1.90766 4.261 4.26087z" fill="#e84e57"/><path d="m196 4.26087c0 2.35321-1.908 4.26087-4.261 4.26087s-4.261-1.90766-4.261-4.26087 1.908-4.26087 4.261-4.26087 4.261 1.90766 4.261 4.26087z" fill="#ffbf1a"/><path d="m8.5217 66.7536c0 2.3532-1.90765 4.2609-4.26085 4.2609s-4.26085-1.9077-4.26085-4.2609 1.90765-4.2609 4.26085-4.2609 4.26085 1.9077 4.26085 4.2609z" fill="#e84e57"/><path d="m8.5217 66.7536c0 2.3532-1.90765 4.2609-4.26085 4.2609s-4.26085-1.9077-4.26085-4.2609 1.90765-4.2609 4.26085-4.2609 4.26085 1.9077 4.26085 4.2609z" fill="#ffbf1a"/><path d="m71.0148 66.7536c0 2.3532-1.9077 4.2609-4.2609 4.2609s-4.2608-1.9077-4.2608-4.2609 1.9076-4.2609 4.2608-4.2609 4.2609 1.9077 4.2609 4.2609z" fill="#e84e57"/><path d="m71.0148 66.7536c0 2.3532-1.9077 4.2609-4.2609 4.2609s-4.2608-1.9077-4.2608-4.2609 1.9076-4.2609 4.2608-4.2609 4.2609 1.9077 4.2609 4.2609z" fill="#ffbf1a"/><path d="m133.507 66.7536c0 2.3532-1.908 4.2609-4.261 4.2609s-4.261-1.9077-4.261-4.2609 1.908-4.2609 4.261-4.2609 4.261 1.9077 4.261 4.2609z" fill="#e84e57"/><path d="m133.507 66.7536c0 2.3532-1.908 4.2609-4.261 4.2609s-4.261-1.9077-4.261-4.2609 1.908-4.2609 4.261-4.2609 4.261 1.9077 4.261 4.2609z" fill="#ffbf1a"/><path d="m196 66.7536c0 2.3532-1.908 4.2609-4.261 4.2609s-4.261-1.9077-4.261-4.2609 1.908-4.2609 4.261-4.2609 4.261 1.9077 4.261 4.2609z" fill="#e84e57"/><path d="m196 66.7536c0 2.3532-1.908 4.2609-4.261 4.2609s-4.261-1.9077-4.261-4.2609 1.908-4.2609 4.261-4.2609 4.261 1.9077 4.261 4.2609z" fill="#ffbf1a"/><path d="m8.5217 129.246c0 2.354-1.90765 4.261-4.26085 4.261s-4.26085-1.907-4.26085-4.261c0-2.353 1.90765-4.26 4.26085-4.26s4.26085 1.907 4.26085 4.26z" fill="#e84e57"/><path d="m8.5217 129.246c0 2.354-1.90765 4.261-4.26085 4.261s-4.26085-1.907-4.26085-4.261c0-2.353 1.90765-4.26 4.26085-4.26s4.26085 1.907 4.26085 4.26z" fill="#ffbf1a"/><path d="m71.0148 129.246c0 2.354-1.9077 4.261-4.2609 4.261s-4.2608-1.907-4.2608-4.261c0-2.353 1.9076-4.26 4.2608-4.26s4.2609 1.907 4.2609 4.26z" fill="#e84e57"/><path d="m71.0148 129.246c0 2.354-1.9077 4.261-4.2609 4.261s-4.2608-1.907-4.2608-4.261c0-2.353 1.9076-4.26 4.2608-4.26s4.2609 1.907 4.2609 4.26z" fill="#ffbf1a"/><path d="m133.507 129.246c0 2.354-1.908 4.261-4.261 4.261s-4.261-1.907-4.261-4.261c0-2.353 1.908-4.26 4.261-4.26s4.261 1.907 4.261 4.26z" fill="#e84e57"/><path d="m133.507 129.246c0 2.354-1.908 4.261-4.261 4.261s-4.261-1.907-4.261-4.261c0-2.353 1.908-4.26 4.261-4.26s4.261 1.907 4.261 4.26z" fill="#ffbf1a"/><path d="m196 129.246c0 2.354-1.908 4.261-4.261 4.261s-4.261-1.907-4.261-4.261c0-2.353 1.908-4.26 4.261-4.26s4.261 1.907 4.261 4.26z" fill="#e84e57"/><path d="m196 129.246c0 2.354-1.908 4.261-4.261 4.261s-4.261-1.907-4.261-4.261c0-2.353 1.908-4.26 4.261-4.26s4.261 1.907 4.261 4.26z" fill="#ffbf1a"/><path d="m8.5217 191.739c0 2.353-1.90765 4.261-4.26085 4.261s-4.26085-1.908-4.26085-4.261 1.90765-4.261 4.26085-4.261 4.26085 1.908 4.26085 4.261z" fill="#e84e57"/><path d="m8.5217 191.739c0 2.353-1.90765 4.261-4.26085 4.261s-4.26085-1.908-4.26085-4.261 1.90765-4.261 4.26085-4.261 4.26085 1.908 4.26085 4.261z" fill="#ffbf1a"/><path d="m71.0148 191.739c0 2.353-1.9077 4.261-4.2609 4.261s-4.2608-1.908-4.2608-4.261 1.9076-4.261 4.2608-4.261 4.2609 1.908 4.2609 4.261z" fill="#e84e57"/><path d="m71.0148 191.739c0 2.353-1.9077 4.261-4.2609 4.261s-4.2608-1.908-4.2608-4.261 1.9076-4.261 4.2608-4.261 4.2609 1.908 4.2609 4.261z" fill="#ffbf1a"/><path d="m133.507 191.739c0 2.353-1.908 4.261-4.261 4.261s-4.261-1.908-4.261-4.261 1.908-4.261 4.261-4.261 4.261 1.908 4.261 4.261z" fill="#e84e57"/><path d="m133.507 191.739c0 2.353-1.908 4.261-4.261 4.261s-4.261-1.908-4.261-4.261 1.908-4.261 4.261-4.261 4.261 1.908 4.261 4.261z" fill="#ffbf1a"/><path d="m196 191.739c0 2.353-1.908 4.261-4.261 4.261s-4.261-1.908-4.261-4.261 1.908-4.261 4.261-4.261 4.261 1.908 4.261 4.261z" fill="#e84e57"/><path d="m196 191.739c0 2.353-1.908 4.261-4.261 4.261s-4.261-1.908-4.261-4.261 1.908-4.261 4.261-4.261 4.261 1.908 4.261 4.261z" fill="#ffbf1a"/></g></svg>