<svg fill="none" height="315" viewBox="0 0 315 315" width="315" xmlns="http://www.w3.org/2000/svg" xmlns:xlink="http://www.w3.org/1999/xlink"><filter id="a" color-interpolation-filters="sRGB" filterUnits="userSpaceOnUse" height="313.817" width="313.817" x=".433" y=".435"><feFlood flood-opacity="0" result="BackgroundImageFix"/><feColorMatrix in="SourceAlpha" result="hardAlpha" type="matrix" values="0 0 0 0 0 0 0 0 0 0 0 0 0 0 0 0 0 0 127 0"/><feOffset dx="-8" dy="36"/><feGaussianBlur stdDeviation="31"/><feColorMatrix type="matrix" values="0 0 0 0 0.976471 0 0 0 0 0.8 0 0 0 0 0.0392157 0 0 0 0.35 0"/><feBlend in2="BackgroundImageFix" mode="normal" result="effect1_dropShadow"/><feBlend in="SourceGraphic" in2="effect1_dropShadow" mode="normal" result="shape"/></filter><g filter="url(#a)"><path d="m93.1665 133.843c-4.1861-3.602-4.6593-9.916-1.0568-14.102l60.7323-70.5718c3.602-4.1861 9.916-4.6593 14.102-1.0568l70.572 60.7316c4.186 3.603 4.659 9.917 1.057 14.103l-60.732 70.571c-3.603 4.187-9.917 4.66-14.103 1.057zm75.4705-53.9698c-4.19-3.597-10.504-3.1157-14.101 1.0751l-31.057 36.1837c-3.597 4.191-3.116 10.504 1.075 14.101l36.184 31.058c4.191 3.597 10.504 3.116 14.101-1.075l31.057-36.184c3.597-4.191 3.116-10.504-1.075-14.101z" fill="#f23e60"/><path d="m93.1665 133.843c-4.1861-3.602-4.6593-9.916-1.0568-14.102l60.7323-70.5718c3.602-4.1861 9.916-4.6593 14.102-1.0568l70.572 60.7316c4.186 3.603 4.659 9.917 1.057 14.103l-60.732 70.571c-3.603 4.187-9.917 4.66-14.103 1.057zm75.4705-53.9698c-4.19-3.597-10.504-3.1157-14.101 1.0751l-31.057 36.1837c-3.597 4.191-3.116 10.504 1.075 14.101l36.184 31.058c4.191 3.597 10.504 3.116 14.101-1.075l31.057-36.184c3.597-4.191 3.116-10.504-1.075-14.101z" fill="#e84e57"/><path d="m93.1665 133.843c-4.1861-3.602-4.6593-9.916-1.0568-14.102l60.7323-70.5718c3.602-4.1861 9.916-4.6593 14.102-1.0568l70.572 60.7316c4.186 3.603 4.659 9.917 1.057 14.103l-60.732 70.571c-3.603 4.187-9.917 4.66-14.103 1.057zm75.4705-53.9698c-4.19-3.597-10.504-3.1157-14.101 1.0751l-31.057 36.1837c-3.597 4.191-3.116 10.504 1.075 14.101l36.184 31.058c4.191 3.597 10.504 3.116 14.101-1.075l31.057-36.184c3.597-4.191 3.116-10.504-1.075-14.101z" fill="#fecf07"/></g></svg>